<svg width="17" height="17" viewBox="0 0 17 17" fill="none" xmlns="http://www.w3.org/2000/svg">
<path d="M17 1.7H11.1633C10.7667 0.714 9.72778 0 8.5 0C7.27222 0 6.23333 0.714 5.83667 1.7H0V17H17V1.7ZM8.5 1.7C9.01944 1.7 9.44444 2.0825 9.44444 2.55C9.44444 3.0175 9.01944 3.4 8.5 3.4C7.98056 3.4 7.55556 3.0175 7.55556 2.55C7.55556 2.0825 7.98056 1.7 8.5 1.7ZM10.3889 13.6H3.77778V11.9H10.3889V13.6ZM13.2222 10.2H3.77778V8.5H13.2222V10.2ZM13.2222 6.8H3.77778V5.1H13.2222V6.8Z" fill="#CF9269"/>
</svg>
