<svg width="20" height="20" viewBox="0 0 20 20" fill="none" xmlns="http://www.w3.org/2000/svg">
<path d="M13.8724 3.22981H16.3234C17.0001 3.22981 17.5489 3.85564 17.5489 4.62733V15.8075C17.5489 16.5791 17.0001 17.205 16.3234 17.205H13.8724C13.1956 17.205 12.6468 17.8308 12.6468 18.6025C12.6468 19.3742 13.1945 20 13.8724 20H16.3234C18.354 20 20 18.123 20 15.8075L20 4.62733C20 2.31182 18.354 0.43478 16.3234 0.43478H13.8724C13.1956 0.43478 12.6468 1.06061 12.6468 1.8323C12.6468 2.60399 13.1945 3.22981 13.8724 3.22981ZM0.751535 11.2044L5.65365 16.7944C6.13276 17.3408 6.90829 17.3399 7.38663 16.7944C7.86535 16.2485 7.86535 15.3642 7.38663 14.8183L4.57366 11.6149H12.6468C13.3247 11.6149 13.8724 10.9904 13.8724 10.2174C13.8724 9.44439 13.3243 8.81987 12.6468 8.81987H4.57366L7.38394 5.6152C7.86267 5.06929 7.86267 4.18493 7.38394 3.63902C6.90522 3.09312 6.12969 3.09312 5.65097 3.63902L0.748854 9.22908C0.272812 9.7763 0.272814 10.6585 0.751535 11.2044Z" fill="white"/>
</svg>
