<svg width="14" height="12" viewBox="0 0 14 12" fill="none" xmlns="http://www.w3.org/2000/svg">
<path d="M11.8443 6.65574L11.8605 10.3608C11.8628 11.1824 11.1986 11.8489 10.3793 11.8489H2.96454C2.14645 11.8489 1.48319 11.1847 1.48319 10.3678V6.65574H0.741713C0.324456 6.65574 0 6.32944 0 5.91287C0 5.70459 0.0695197 5.51945 0.231655 5.35746L6.16512 0.185509C6.32712 0.0231886 6.51226 0 6.67426 0C6.83625 0 7.02139 0.0463773 7.16256 0.162321L9.62722 2.33044V1.48111C9.62722 1.07219 9.95816 0.740556 10.3678 0.740556H11.1083C11.518 0.740556 11.8489 1.07219 11.8489 1.48111V4.28134L13.0708 5.35746C13.2559 5.51945 13.3508 5.70459 13.3254 5.91287C13.3254 6.32944 12.9782 6.65574 12.5848 6.65574H11.8443ZM6.665 6.665C7.48193 6.665 8.14611 6.00081 8.14611 5.18389C8.14611 4.36696 7.48193 3.70278 6.665 3.70278C5.84807 3.70278 5.18389 4.36696 5.18389 5.18389C5.18389 6.00081 5.84807 6.665 6.665 6.665ZM4.44333 9.62722H8.88667C9.09032 9.62722 9.25694 9.4606 9.25694 9.25694C9.25694 8.23405 8.42845 7.40556 7.40556 7.40556H5.92444C4.90155 7.40556 4.07306 8.23405 4.07306 9.25694C4.07306 9.4606 4.23968 9.62722 4.44333 9.62722Z" fill="white"/>
</svg>
