<svg width="14" height="18" viewBox="0 0 14 18" fill="none" xmlns="http://www.w3.org/2000/svg">
<path d="M13.33 4.44333H8.88667V0L13.33 4.44333ZM8.88667 5.55417H13.33V16.1071C13.33 17.0273 12.584 17.7733 11.6637 17.7733H1.66625C0.745994 17.7733 0 17.027 0 16.1071V1.66625C0 0.745994 0.745994 0 1.66625 0H7.77583L7.77597 4.44333C7.77583 5.05776 8.27224 5.55417 8.88667 5.55417ZM2.22167 3.05479C2.22167 3.20684 2.34768 3.3325 2.49937 3.3325H5.27646C5.4292 3.3325 5.55417 3.20684 5.55417 3.05479V2.49937C5.55417 2.34768 5.4292 2.22167 5.27646 2.22167H2.49937C2.34768 2.22167 2.22167 2.34768 2.22167 2.49937V3.05479ZM2.49937 5.55417H5.27646C5.4292 5.55417 5.55417 5.4292 5.55417 5.27646V4.72104C5.55417 4.5683 5.4292 4.44333 5.27646 4.44333H2.49937C2.34768 4.44333 2.22167 4.5683 2.22167 4.72104V5.27646C2.22167 5.4292 2.34768 5.55417 2.49937 5.55417ZM6.85592 10.9972L6.63376 10.9417C5.84229 10.6987 5.85965 10.5564 5.88742 10.4314C5.93515 10.1602 6.46331 10.094 6.9382 10.1667C7.13238 10.196 7.34539 10.2643 7.54881 10.3349C7.90948 10.4596 8.3066 10.2676 8.43227 9.90652C8.5581 9.54411 8.36662 9.14837 8.00425 9.02236C7.75365 8.93613 7.54915 8.8808 7.35996 8.83932V8.60896C7.35996 8.22607 7.04917 7.91469 6.66569 7.91469C6.28221 7.91469 5.97142 8.22603 5.97142 8.60896V8.81696C5.19315 8.98386 4.64467 9.46985 4.5197 10.1954C4.26261 11.6825 5.67185 12.0959 6.27343 12.2726L6.47519 12.3312C7.4916 12.6219 7.47494 12.7197 7.44439 12.8964C7.39666 13.1675 6.86849 13.2348 6.39222 13.161C6.15138 13.1253 5.8434 13.0146 5.5709 12.917L5.41576 12.8606C5.0544 12.7358 4.65797 12.9235 4.52987 13.2848C4.40241 13.6461 4.5917 14.0429 4.95338 14.171L5.10147 14.2231C5.37077 14.3199 5.67007 14.4171 5.97139 14.4838V14.7185C5.97139 15.1014 6.28218 15.4128 6.66566 15.4128C7.04914 15.4128 7.35993 15.1015 7.35993 14.7185V14.5014C8.13612 14.3351 8.68633 13.8582 8.812 13.1327C9.07065 11.629 7.63004 11.2159 6.85592 10.9972Z" fill="white"/>
</svg>
