<svg width="14" height="12" viewBox="0 0 14 12" fill="none" xmlns="http://www.w3.org/2000/svg">
<path d="M4.99998 5.94097C6.4729 5.94097 7.66665 4.6856 7.66665 3.13715C7.66665 1.5887 6.4729 0.333332 4.99998 0.333332C3.52706 0.333332 2.33331 1.5887 2.33331 3.13715C2.33331 4.6856 3.52706 5.94097 4.99998 5.94097ZM6.05623 6.9924H3.94373C1.94935 6.9924 0.333313 8.69222 0.333313 10.7885C0.333313 11.2091 0.656646 11.5486 1.0554 11.5486H8.94373C9.34373 11.5486 9.66665 11.2091 9.66665 10.7885C9.66665 8.69222 8.04998 6.9924 6.05623 6.9924ZM10.3146 7.34288H8.77602C9.73331 8.16869 10.3333 9.40413 10.3333 10.7885C10.3333 11.0689 10.2541 11.3274 10.125 11.5486H13C13.3687 11.5486 13.6666 11.2332 13.6666 10.8279C13.6666 8.91127 12.175 7.34288 10.3146 7.34288ZM9.33331 5.94097C10.6229 5.94097 11.6666 4.84354 11.6666 3.48763C11.6666 2.13172 10.6229 1.03429 9.33331 1.03429C8.81019 1.03429 8.33248 1.22168 7.94331 1.52736C8.18331 2.0119 8.33331 2.55448 8.33331 3.13715C8.33331 3.91521 8.08477 4.62975 7.67519 5.21176C8.0979 5.66059 8.68331 5.94097 9.33331 5.94097Z" fill="white"/>
</svg>
