<svg width="14" height="8" viewBox="0 0 14 8" fill="none" xmlns="http://www.w3.org/2000/svg">
<path d="M8.66448 2.45244C8.66448 1.09802 6.72538 0 4.33223 0C1.93908 0 -2.24207e-05 1.09802 -2.24207e-05 2.45244C-2.24207e-05 3.00382 0.325313 3.51089 0.867886 3.92111C0.526513 4.3776 0.0507982 4.71983 0.0433001 4.72485C-0.000438983 4.75557 -0.012311 4.80114 0.0132868 4.84125C0.039551 4.88119 0.0958287 4.90488 0.159521 4.90488C0.95828 4.90488 1.63332 4.74993 2.15361 4.5699C2.79511 4.78086 3.5366 4.90488 4.33223 4.90488C6.72538 4.90488 8.66448 3.80685 8.66448 2.45244ZM5.61941 3.04186C5.54443 3.33309 5.21534 3.51284 4.74879 3.59087V3.73439C4.74879 3.88809 4.56232 4.01308 4.33223 4.01308C4.10214 4.01308 3.91567 3.8881 3.91567 3.73439V3.5839C3.73484 3.55712 3.55534 3.51809 3.39371 3.47923L3.30486 3.45833C3.08879 3.40694 2.97424 3.24809 3.0513 3.10317C3.12811 2.95811 3.36601 2.88287 3.58283 2.93289L3.67592 2.95554C3.83929 2.99472 4.02416 3.03914 4.16871 3.05351C4.45303 3.08366 4.76962 3.05579 4.79878 2.94711C4.81753 2.87604 4.82794 2.83703 4.21768 2.71998L4.09687 2.69629C3.73592 2.62531 2.89051 2.45941 3.04464 1.86246C3.12003 1.57179 3.44912 1.37615 3.91567 1.30969V1.17048C3.91567 1.01679 4.10214 0.891796 4.33223 0.891796C4.56232 0.891796 4.74879 1.01677 4.74879 1.17048V1.3186C4.86237 1.33526 4.98498 1.35747 5.13536 1.39208C5.35281 1.4422 5.46736 1.60105 5.39238 1.74736C5.3174 1.89228 5.07788 1.96892 4.86127 1.91875C4.73923 1.89045 4.61133 1.86302 4.4949 1.85126C4.21143 1.82261 3.87609 1.84908 3.86568 1.95777C3.84902 2.00793 3.8386 2.06506 4.31349 2.1626L4.44679 2.1849C4.91125 2.27269 5.77562 2.4385 5.61941 3.04186ZM12.4885 6.18265C13.0134 5.76741 13.33 5.24766 13.33 4.68193C13.33 3.32751 11.5388 2.22949 9.33098 2.22949C9.32443 2.22949 9.31809 2.23006 9.31154 2.23009C9.32057 2.30334 9.33098 2.37719 9.33098 2.45244C9.33098 3.82664 7.6714 4.97733 5.45487 5.27414C5.88809 6.3415 7.43771 7.13437 9.33098 7.13437C10.0327 7.13437 10.6915 7.02278 11.2649 6.82809C11.772 6.99502 12.4156 7.13437 13.1696 7.13437C13.2333 7.13437 13.2896 7.11033 13.3158 7.0702C13.3414 7.03008 13.3295 6.98453 13.2858 6.95379C13.28 6.94904 12.828 6.62298 12.4885 6.18265Z" fill="white"/>
</svg>
