<svg width="13" height="14" viewBox="0 0 13 14" fill="none" xmlns="http://www.w3.org/2000/svg">
<path d="M3.99692 11.9389C3.79351 11.9389 3.59119 11.8599 3.41832 11.7023L0.666504 9.05399V12.7746C0.666504 13.2435 0.966012 13.6262 1.333 13.6262H6.665C7.03199 13.6262 7.3315 13.2435 7.3315 12.7746V9.05399L4.58636 11.6967C4.40932 11.8591 4.20312 11.9389 3.99692 11.9389ZM3.999 5.10983C3.999 4.1717 4.59781 3.40656 5.332 3.40656H9.9975V0.851639C9.9975 0.382705 9.69799 0 9.331 0H2.666C2.29943 0 1.9995 0.382705 1.9995 0.851639V5.96147H3.999V5.10983ZM6.665 6.81311H1.333C0.966012 6.81311 0.666504 7.19635 0.666504 7.66475V7.9889L3.81155 11.0175C3.9209 11.1165 4.07607 11.1169 4.19208 11.0109L7.3315 7.98944V7.66475C7.3315 7.19635 7.03158 6.81311 6.665 6.81311ZM11.997 4.25819H5.332C4.96543 4.25819 4.6655 4.64143 4.6655 5.10983V5.96147H6.665C7.35754 5.96147 7.92781 6.63693 7.9928 7.50187L7.998 11.0713H11.997C12.364 11.0713 12.6635 10.6886 12.6635 10.2197V5.10983C12.6635 4.64143 12.3636 4.25819 11.997 4.25819ZM11.3305 7.66475H9.9975V5.96147H11.3305V7.66475Z" fill="white"/>
</svg>
