<svg width="14" height="11" viewBox="0 0 14 11" fill="none" xmlns="http://www.w3.org/2000/svg">
<path d="M10.4736 2.69163C10.4736 4.17834 8.76864 5.38327 6.665 5.38327C4.56136 5.38327 2.85643 4.17834 2.85643 2.69163C2.85643 1.20514 4.56136 0 6.665 0C8.76864 0 10.4736 1.20514 10.4736 2.69163ZM6.22166 7.5534L5.23679 6.39263H8.09321L7.10834 7.5534L8.09916 10.1588L9.27447 6.76904C11.5715 7.02138 13.33 8.42608 13.33 10.121C13.33 10.4763 12.9194 10.7665 12.4165 10.7665H0.914057C0.409124 10.7665 0 10.4763 0 10.121C0 8.42608 1.75819 7.02138 4.05553 6.76904L5.23083 10.1588L6.22166 7.5534Z" fill="white"/>
</svg>
